Coordinates
version=1
nRows=7
nColumns=60
inDegrees=yes

Units are S.I. units (second, meters, Newtons, ...)
If the header above contains a line with 'inDegrees', this indicates whether rotational values are in degrees (yes) or radians (no).

endheader
time	pelvis_tilt	pelvis_list	pelvis_rotation	pelvis_tx	pelvis_ty	pelvis_tz	hip_flexion_r	hip_adduction_r	hip_rotation_r	knee_angle_r_beta	knee_angle_r	ankle_angle_r	subtalar_angle_r	mtp_angle_r	hip_flexion_l	hip_adduction_l	hip_rotation_l	knee_angle_l_beta	knee_angle_l	ankle_angle_l	subtalar_angle_l	mtp_angle_l	L5_S1_Flex_Ext	L5_S1_Lat_Bending	L5_S1_axial_rotation	L4_L5_Flex_Ext	L4_L5_Lat_Bending	L4_L5_axial_rotation	L3_L4_Flex_Ext	L3_L4_Lat_Bending	L3_L4_axial_rotation	L2_L3_Flex_Ext	L2_L3_Lat_Bending	L2_L3_axial_rotation	L1_L2_Flex_Ext	L1_L2_Lat_Bending	L1_L2_axial_rotation	L1_T12_Flex_Ext	L1_T12_Lat_Bending	L1_T12_axial_rotation	Abs_r3	Abs_r2	Abs_r1	Abs_t1	Abs_t2	arm_flex_r	arm_add_r	arm_rot_r	elbow_flex_r	pro_sup_r	wrist_flex_r	wrist_dev_r	arm_flex_l	arm_add_l	arm_rot_l	elbow_flex_l	pro_sup_l	wrist_flex_l	wrist_dev_l
     14.94000000	      1.81771142	     -1.69062021	     95.58062243	      0.40973746	      0.89822081	      0.38158555	     27.01055450	     -4.47505593	     -1.54504975	      0.54433028	    -31.18782761	      7.89414791	      0.00000000	      0.00000000	     28.80055922	     -6.37919244	      3.86096519	      0.51056175	    -29.25303320	      6.30811101	      0.00000000	      0.00000000	    -10.62840519	      0.43890920	      0.06053925	    -19.73801128	      0.58374924	      0.06432296	    -17.46140689	      1.06716384	      0.06432296	    -12.14720429	      1.06716384	      0.05297185	     -9.86953706	      0.89502365	      0.04918814	     -6.07307073	      0.67987036	      0.04540444	    -75.91763544	      4.96502870	      0.33670117	      0.00000000	      0.00000000	     47.89045478	    -24.00132498	     11.90460316	     69.39033218	     64.80995350	      6.98888819	     10.70773671	     57.01148436	    -24.58344521	     20.84892817	     64.04037534	     68.18773393	     15.09728630	      8.67824357
     14.95000000	      1.73195289	     -0.88305491	     95.43109936	      0.40979562	      0.90110931	      0.37851022	     25.61427321	     -4.36542153	     -1.38326592	      0.53401516	    -30.59681467	      7.91300510	      0.00000000	      0.00000000	     27.35621003	     -6.45487910	      3.72603872	      0.50069041	    -28.68744727	      6.38084775	      0.00000000	      0.00000000	    -10.58822605	      0.42551818	      0.05968492	    -19.66339460	      0.56593918	      0.06341522	    -17.39539658	      1.03460490	      0.06341522	    -12.10128355	      1.03460490	      0.05222430	     -9.83222671	      0.86771667	      0.04849400	     -6.05011237	      0.65912766	      0.04476369	    -75.63063986	      4.81354677	      0.33194961	      0.00000000	      0.00000000	     46.10404170	    -24.20273211	     11.53951209	     70.55801501	     64.79891038	      6.86885319	     10.72263105	     55.09558583	    -24.71362178	     20.03105459	     65.23403668	     68.18156479	     15.06589282	      8.63679068
     14.96000000	      1.63404069	     -0.25976620	     95.29031127	      0.40982466	      0.90363333	      0.37536543	     24.42770773	     -4.32990346	     -1.39773528	      0.52380479	    -30.01180364	      7.98728274	      0.00000000	      0.00000000	     26.11491184	     -6.51391794	      3.43705503	      0.49088626	    -28.12571110	      6.51401081	      0.00000000	      0.00000000	    -10.49835528	      0.40807065	      0.04468214	    -19.49649560	      0.54273396	      0.04747477	    -17.24774790	      0.99218297	      0.04747477	    -11.99857025	      0.99218297	      0.03909687	     -9.74877272	      0.83213766	      0.03630423	     -5.99876021	      0.63210143	      0.03351160	    -74.98870196	      4.61617676	      0.24850863	      0.00000000	      0.00000000	     44.40690399	    -24.34274493	     11.45666624	     71.29775204	     64.80916708	      6.80130620	     10.78166256	     53.22880778	    -24.86564421	     19.53529723	     66.03127635	     68.22838169	     15.04370198	      8.60760922
     14.97000000	      1.50516071	      0.65406387	     95.10749412	      0.40989783	      0.90657248	      0.37204429	     22.90494956	     -4.24815133	     -1.11798050	      0.51379672	    -29.43838376	      8.01456745	      0.00000000	      0.00000000	     24.49546963	     -6.55206037	      3.27860644	      0.48019721	    -27.51327344	      6.58210594	      0.00000000	      0.00000000	    -10.46887564	      0.38666144	      0.02499349	    -19.44174895	      0.51425971	      0.02655558	    -17.19931579	      0.94012862	      0.02655558	    -11.96487797	      0.94012862	      0.02186930	     -9.72139792	      0.78848001	      0.02030721	     -5.98191554	      0.59893857	      0.01874511	    -74.77813181	      4.37399153	      0.13900627	      0.00000000	      0.00000000	     42.68609436	    -24.43823321	     11.09263281	     72.47531827	     64.83322915	      6.67756465	     10.88701123	     51.14140284	    -25.06138593	     18.38510634	     67.41234590	     68.37012827	     14.98650473	      8.50803326
     14.98000000	      1.40265744	      1.34098287	     94.95208007	      0.40995039	      0.90904261	      0.36872760	     21.67349903	     -4.20910445	     -1.08484975	      0.50480175	    -28.92300966	      8.07474938	      0.00000000	      0.00000000	     23.18320117	     -6.60147672	      3.02285666	      0.47102592	    -26.98779713	      6.69232837	      0.00000000	      0.00000000	    -10.38142755	      0.36660356	     -0.00013612	    -19.27934910	      0.48758273	     -0.00014462	    -17.05564732	      0.89135989	     -0.00014462	    -11.86493354	      0.89135989	     -0.00011910	     -9.64019362	      0.74757797	     -0.00011060	     -5.93194770	      0.56786891	     -0.00010209	    -74.15349883	      4.14709277	     -0.00075705	      0.00000000	      0.00000000	     41.03241601	    -24.46782943	     10.98676203	     73.23656473	     64.86864677	      6.57463826	     11.03738543	     49.14273953	    -25.20356667	     17.63987940	     68.34242912	     68.55479149	     14.94203246	      8.45047720
     14.99000000	      1.29979487	      2.23091189	     94.77252712	      0.41004567	      0.91174553	      0.36523796	     20.19532376	     -4.13177198	     -0.85391421	      0.49589488	    -28.41268347	      8.09319347	      0.00000000	      0.00000000	     21.60723148	     -6.64920831	      2.89422594	      0.46146461	    -26.43997433	      6.75284847	      0.00000000	      0.00000000	    -10.33656950	      0.34354642	     -0.03414217	    -19.19604322	      0.45691674	     -0.03627605	    -16.98195004	      0.83529877	     -0.03627605	    -11.81366529	      0.83529877	     -0.02987440	     -9.59853844	      0.70055986	     -0.02774051	     -5.90631581	      0.53215341	     -0.02560663	    -73.83308230	      3.88626582	     -0.18988849	      0.00000000	      0.00000000	     39.43669101	    -24.41392562	     10.70442996	     74.26425555	     64.94463266	      6.38014429	     11.34754759	     46.90958216	    -25.37389734	     16.25277098	     69.77431849	     68.99605267	     14.85328462	      8.32770401
     15.00000000	      1.22544686	      2.90666186	     94.62154554	      0.41009267	      0.91402317	      0.36169223	     18.93820558	     -4.07390376	     -0.75100318	      0.48637169	    -27.86704531	      8.16386555	      0.00000000	      0.00000000	     20.27299706	     -6.70016362	      2.72699955	      0.45182278	    -25.88753847	      6.91157398	      0.00000000	      0.00000000	    -10.24014778	      0.32402723	     -0.06795053	    -19.01697844	      0.43095622	     -0.07219743	    -16.82353879	      0.78783981	     -0.07219743	    -11.70346490	      0.78783981	     -0.05945671	     -9.50900123	      0.66075633	     -0.05520980	     -5.85122044	      0.50191818	     -0.05096289	    -73.14435157	      3.66546086	     -0.37792044	      0.00000000	      0.00000000	     37.85153468	    -24.39182546	     10.61489538	     75.00087006	     65.02831472	      6.19932499	     11.70832331	     44.75382667	    -25.48990014	     15.18770730	     70.82837852	     69.51253391	     14.76945862	      8.23382903
